<svg width="190" height="199" viewBox="0 0 190 199" fill="none" xmlns="http://www.w3.org/2000/svg">
<path fill-rule="evenodd" clip-rule="evenodd" d="M122.678 167.599C30.0449 221.038 0 208.763 0 101.885C0 -4.99247 25.6631 -24.8513 118.296 28.5875C210.928 82.0263 215.31 114.16 122.678 167.599Z" fill="#5B5B5B"/>
<path fill-rule="evenodd" clip-rule="evenodd" d="M116.63 160.152C36.5562 207.03 10.5928 196.269 10.5928 102.499C10.5928 8.7286 32.775 -8.68879 112.835 38.1895C192.896 85.0678 196.691 113.26 116.63 160.138" fill="white"/>
<path d="M46.6849 73.6927V114.542H118.132V73.6927H46.6849ZM37.7574 73.6927C37.7574 68.687 41.7571 64.6089 46.6849 64.6089H118.132C123.06 64.6089 127.059 68.6734 127.059 73.6927V114.542C127.059 119.548 123.06 123.626 118.132 123.626H46.6849C41.7571 123.626 37.7574 119.562 37.7574 114.542V73.6927ZM55.6124 128.168H109.191C111.662 128.168 113.655 130.2 113.655 132.71C113.655 135.22 111.662 137.252 109.191 137.252H55.6124C53.1416 137.252 51.1486 135.22 51.1486 132.71C51.1486 130.2 53.1416 128.168 55.6124 128.168Z" fill="#CCBB00"/>
<path d="M82.3948 100.494L83.8144 101.244L88.401 103.685L87.5137 98.4343L87.2544 96.8931L88.3737 95.7883L92.1549 92.0647L86.9814 91.3009L85.3979 91.0691L84.7017 89.6369L82.3948 84.9177V100.494ZM91.8273 105.786C91.9365 106.427 91.6635 107.082 91.1311 107.464C90.5988 107.845 89.8889 107.9 89.3156 107.586L82.4084 103.904L75.5012 107.586C74.9143 107.886 74.2181 107.845 73.6857 107.464C73.1533 107.082 72.8803 106.427 72.9895 105.786L74.3136 97.9433L68.7033 92.3921C68.2391 91.9283 68.0753 91.2464 68.2801 90.6326C68.4848 90.0188 69.0172 89.5687 69.6588 89.4596L77.385 88.3139L80.8523 81.1942C81.1389 80.6077 81.7395 80.2258 82.4084 80.2258C83.0773 80.2258 83.6643 80.6077 83.9646 81.1942L87.4318 88.3139L95.158 89.4596C95.7996 89.5551 96.3456 90.0052 96.5367 90.6326C96.7279 91.26 96.5777 91.9283 96.1136 92.3921L90.5032 97.9433L91.8273 105.786Z" fill="#CCBB00"/>
</svg>
