<svg width="412" height="146" viewBox="0 0 412 146" fill="none" xmlns="http://www.w3.org/2000/svg">
<path d="M190.15 33.7597V66.8297H183.66V52.7797L174.37 66.2897H174.33L165.02 52.7797V66.8297H158.53V33.7597H158.89L174.35 55.0797L189.79 33.7597H190.15Z" fill="#CCBB00"/>
<path d="M195.48 54.8997V34.5597H202.01V54.8797C202.01 58.3997 204.79 60.9697 207.92 60.9697C211.05 60.9697 213.87 58.3897 213.87 54.8797V34.5597H220.4V54.8997C220.4 62.2097 214.82 67.5297 207.95 67.5297C201.08 67.5297 195.5 62.1997 195.5 54.8997H195.48Z" fill="#CCBB00"/>
<path d="M245.17 60.3797V66.8297H225.71V34.5597H232.2V60.3897H245.17V60.3797Z" fill="#CCBB00"/>
<path d="M263.22 40.9797H255.29V66.8297H248.78V40.9797H240.83V34.5497H263.21V40.9797H263.22Z" fill="#CCBB00"/>
<path d="M266.87 34.5597H273.36V66.8297H266.87V34.5597Z" fill="#CCBB00"/>
<path d="M310.57 33.7597V66.8297H304.08V52.7797L294.79 66.2897H294.75L285.44 52.7797V66.8297H278.95V33.7597H279.31L294.77 55.0797L310.2 33.7597H310.56H310.57Z" fill="#CCBB00"/>
<path d="M322.66 40.9496V47.2596H333.79V53.7296H322.66V60.3997H335.63V66.8496H316.17V34.5797H335.63V40.9697H322.66V40.9496Z" fill="#CCBB00"/>
<path d="M366.58 50.7296C366.58 60.7396 360.21 66.8297 349.78 66.8297H340.39V34.5797L349.78 34.5596C360.21 34.5396 366.58 40.6697 366.58 50.7397V50.7296ZM360.03 50.7096C360.03 44.6596 356.15 40.9796 349.76 40.9796H346.86V60.3596H349.82C356.17 60.3596 360.03 56.7196 360.03 50.7096Z" fill="#CCBB00"/>
<path d="M370.79 34.5597H377.28V66.8297H370.79V34.5597Z" fill="#CCBB00"/>
<path d="M402.48 62.3297H389.57L387.51 66.8297H380.5L395.92 33.7597H396.12L411.56 66.8297H404.53L402.49 62.3297H402.48ZM399.96 56.7997L396.04 48.1697L392.1 56.7997H399.97H399.96Z" fill="#CCBB00"/>
<path d="M157.02 94.0396L159.14 92.4797C160.24 94.5697 162.74 95.9596 165.33 95.9596C168.52 95.9596 171.13 94.2397 171.13 91.8297C171.13 89.0897 167.63 87.7696 164.52 86.5896C161.52 85.4196 158.18 83.9597 158.18 80.1897C158.18 76.4197 161.56 73.6396 165.84 73.6396C169.46 73.6396 171.92 75.6196 172.83 78.0296L170.76 79.4196C169.97 77.5896 168.01 76.3496 165.81 76.3496C163.19 76.3496 160.95 78.0797 160.95 80.2597C160.95 82.6197 163.63 83.4797 166.78 84.6897C170.44 86.1697 173.91 87.8696 173.91 91.7896C173.91 95.9996 170.02 98.7396 165.33 98.7396C161.32 98.7396 158.2 96.6497 157.04 94.0497L157.02 94.0396Z" fill="#5B5B5B"/>
<path d="M176.21 86.2096C176.21 79.3496 181.9 73.6497 188.74 73.6497C191.87 73.6797 194.92 75.1196 197.13 77.3396L195.53 79.4996C193.77 77.6996 191.32 76.4397 188.64 76.4397C183.74 76.4397 179 80.6796 179 86.1996C179 91.7196 183.69 95.9296 188.69 95.9296C191.44 95.9296 193.79 94.6297 195.55 92.8997L197.14 95.1096C195.11 97.1196 192.37 98.6996 188.77 98.6996C181.99 98.6996 176.22 93.1096 176.22 86.1996L176.21 86.2096Z" fill="#5B5B5B"/>
<path d="M198.14 86.2096C198.14 79.2896 203.79 73.6497 210.67 73.6497C217.55 73.6497 223.22 79.2996 223.22 86.2096C223.22 93.1196 217.57 98.7096 210.66 98.7096C203.75 98.7096 198.14 93.0796 198.14 86.2096ZM220.44 86.1996C220.44 80.8296 216.05 76.4196 210.66 76.4196C205.27 76.4196 200.93 80.8196 200.93 86.1996C200.93 91.5796 205.31 95.9296 210.66 95.9296C216.01 95.9296 220.44 91.5496 220.44 86.1996Z" fill="#5B5B5B"/>
<path d="M241.22 98.3997L234.41 88.8796H229.85V98.3997H227.1L227.08 73.9996H234.29C238.82 73.9996 242.51 77.4796 242.51 81.7796C242.51 84.9396 240.35 87.6696 237.38 88.5596L244.63 98.3997H241.22ZM234.38 86.5596C237.29 86.5596 239.68 84.3497 239.68 81.7197C239.68 78.8997 237.26 76.7197 234.38 76.7197H229.84V86.5396H234.38V86.5596Z" fill="#5B5B5B"/>
<path d="M250.21 76.7096V84.4296H260.24V87.1796H250.21V95.6597H261.79V98.3997H247.46V73.9996H261.79V76.7096H250.21Z" fill="#5B5B5B"/>
<path d="M264.62 94.0396L266.74 92.4797C267.85 94.5697 270.34 95.9596 272.93 95.9596C276.12 95.9596 278.73 94.2397 278.73 91.8297C278.73 89.0897 275.23 87.7696 272.11 86.5896C269.11 85.4196 265.77 83.9597 265.77 80.1897C265.77 76.4197 269.15 73.6396 273.43 73.6396C277.05 73.6396 279.51 75.6196 280.42 78.0296L278.35 79.4196C277.56 77.5896 275.6 76.3496 273.4 76.3496C270.78 76.3496 268.54 78.0797 268.54 80.2597C268.54 82.6197 271.22 83.4797 274.37 84.6897C278.03 86.1697 281.5 87.8696 281.5 91.7896C281.5 95.9996 277.61 98.7396 272.92 98.7396C268.91 98.7396 265.79 96.6497 264.63 94.0497L264.62 94.0396Z" fill="#5B5B5B"/>
<path fill-rule="evenodd" clip-rule="evenodd" d="M89.87 122.88C22.01 162.06 0 153.06 0 74.6996C0 -3.66035 18.8 -18.2203 86.66 20.9597C154.52 60.1397 157.73 83.6996 89.87 122.88Z" fill="#5B5B5B"/>
<path fill-rule="evenodd" clip-rule="evenodd" d="M85.44 117.42C26.78 151.79 7.76001 143.9 7.76001 75.1497C7.76001 6.39965 24.01 -6.37035 82.66 27.9997C141.31 62.3697 144.09 83.0397 85.44 117.41" fill="white"/>
<path d="M34.2 54.0297V83.9797H86.54V54.0297H34.2ZM27.66 54.0297C27.66 50.3597 30.59 47.3697 34.2 47.3697H86.54C90.15 47.3697 93.08 50.3497 93.08 54.0297V83.9797C93.08 87.6497 90.15 90.6397 86.54 90.6397H34.2C30.59 90.6397 27.66 87.6597 27.66 83.9797V54.0297ZM40.74 93.9697H79.99C81.8 93.9697 83.26 95.4597 83.26 97.2997C83.26 99.1397 81.8 100.63 79.99 100.63H40.74C38.93 100.63 37.47 99.1397 37.47 97.2997C37.47 95.4597 38.93 93.9697 40.74 93.9697Z" fill="#CCBB00"/>
<path d="M60.36 73.6797L61.4 74.2297L64.76 76.0197L64.11 72.1697L63.92 71.0397L64.74 70.2297L67.51 67.4997L63.72 66.9397L62.56 66.7697L62.05 65.7197L60.36 62.2597V73.6797ZM67.27 77.5597C67.35 78.0297 67.15 78.5097 66.76 78.7897C66.37 79.0697 65.85 79.1097 65.43 78.8797L60.37 76.1797L55.31 78.8797C54.88 79.0997 54.37 79.0697 53.98 78.7897C53.59 78.5097 53.39 78.0297 53.47 77.5597L54.44 71.8097L50.33 67.7397C49.99 67.3997 49.87 66.8997 50.02 66.4497C50.17 65.9997 50.56 65.6697 51.03 65.5897L56.69 64.7497L59.23 59.5297C59.44 59.0997 59.88 58.8197 60.37 58.8197C60.86 58.8197 61.29 59.0997 61.51 59.5297L64.05 64.7497L69.71 65.5897C70.18 65.6597 70.58 65.9897 70.72 66.4497C70.86 66.9097 70.75 67.3997 70.41 67.7397L66.3 71.8097L67.27 77.5597Z" fill="#CCBB00"/>
</svg>
